<?xml version="1.0" encoding="utf-8"?>
<!-- Generator: Adobe Illustrator 21.1.0, SVG Export Plug-In . SVG Version: 6.00 Build 0)  -->
<svg version="1.1" id="Layer_1" xmlns="http://www.w3.org/2000/svg" xmlns:xlink="http://www.w3.org/1999/xlink" x="0px" y="0px"
	 viewBox="0 0 1280 1280" style="enable-background:new 0 0 1280 1280;" xml:space="preserve">
<style type="text/css">
	.st0{fill:#FFFFFF;}
</style>
<g>
	<g>
		<path class="st0" d="M900.5,359.2c-0.8-3.4-1-6.7-1-10.2c0-0.9,0-1.7-0.1-2.6c0.3-2.3,0.3-2.3,1.3-3.7c1.8-1.4,2.6-1.4,4.8-1.4
			l0,0.3c0.6,0,1.3,0,1.9,0c0.7,0,1.3,0,2,0.1c1,0,1,0,2,0c1.7,0,3.3,0.1,4.9,0.1v1.7c3.3,0.1,6.6,0.2,9.8,0.3
			c1.6,0.1,3.2,0.1,4.9,0.2c1.8,0.1,3.5,0.1,5.3,0.2c4.1,0.1,8.3,0.3,12.4,0.4c16.3,0.6,32.6,0.7,48.9,0.7c0.6,0,1.1,0,1.7,0
			c8.8,0,17.6,0,26.4-0.1c7.7,0,15.4,0,23,0c3.8,0,7.6,0,11.5,0c34.9-0.1,34.9-0.1,50.9,2.4c1,0.1,2,0.3,3,0.4
			c7.4,1.1,14.5,2.6,21.7,4.7c0.9,0.3,1.9,0.5,2.8,0.8c6.6,1.9,12.7,4.6,18.9,7.6c0.7,0.3,1.4,0.7,2.2,1
			c11.3,5.2,25.2,15.2,32.2,25.8v1.7c0.8,0.3,1.7,0.6,2.5,0.8c1.2,1.6,2.3,3.3,3.4,5c0.5,0.7,1,1.4,1.6,2.2
			c11,15.7,16.9,33.4,19.4,52.3c0.1,0.7,0.2,1.5,0.3,2.2c2.8,21.6-1.4,40.9-9.6,60.7c-0.4,1-0.4,1-0.8,2c-3,7-7.2,13-11.7,19
			c-0.4,0.6-0.9,1.1-1.3,1.7c-4.9,6.5-10.1,12.2-16.3,17.6c-1.7,1.5-1.7,1.5-3.3,3.1c-1.9,1.9-4,3.4-6.2,5c-0.8,0.5-1.5,1.1-2.3,1.6
			c-0.8,0.6-1.6,1.2-2.5,1.8c-0.5,0.3-0.9,0.7-1.4,1c-3.5,2.6-7.1,4.7-11.1,6.6c-0.6,0.3-1.2,0.6-1.8,0.9c-4.1,2-8.3,4-12.6,5.8
			c-0.9,0.4-1.9,0.8-2.8,1.3c-7,2.9-13.9,5.2-21.3,6.8c-1.1,0.3-1.1,0.3-2.2,0.5c-19.4,4.3-39.8,3.6-59.6,4c-4,0.1-8,0.2-12.1,0.3
			c-7.8,0.2-15.7,0.3-23.5,0.5c0,16.5,0,32.9,0,49.4c0,7.7,0,15.3,0,23c0,6.7,0,13.3,0,20c0,3.5,0,7.1,0,10.6c0,3.3,0,6.7,0,10
			c0,1.2,0,2.4,0,3.6c-0.8,16.8-0.8,16.8,3.5,32.4c2.3,2.4,2.3,2.4,5,4.2c0.7,0.6,1.4,1.1,2.2,1.7c6.3,3.7,12.7,6.2,20,7.2
			c2.1,0.4,2.1,0.4,4,1.2c3.1,1.2,6.1,1.6,9.4,2.1c4.7,0.8,9.5,1.5,14.2,2.5c1.3,0.3,1.3,0.3,2.5,0.5c2.8,1,3.9,1.6,5.5,4.1
			c0.4,3,0.3,6,0.2,9c0,0.8,0,1.7,0,2.5c0,2-0.1,4.1-0.2,6.1c-11.2,0.3-22.3-0.3-33.5-1c-21.5-1.4-43-1.7-64.5-1.7
			c-2.8,0-5.7,0-8.5,0c-21.3-0.1-21.3-0.1-42.5,1.6c-3.1,0.4-6.2,0.5-9.3,0.7c-0.6,0-1.2,0.1-1.8,0.1c-1.7,0.1-3.5,0.2-5.2,0.3
			c-1.2,0.1-2.4,0.1-3.6,0.2c-2.9,0.2-5.8,0.3-8.7,0.5c-0.4-1.2-0.4-1.2-0.8-2.5H903c-0.1-2.3-0.2-4.6-0.3-6.9c0-0.6-0.1-1.3-0.1-2
			c-0.1-3.2,0.1-5,1.8-7.8c4.2-2.7,8.5-3.5,13.4-4.4c1.9-0.4,3.8-0.8,5.7-1.2c0.9-0.2,1.8-0.4,2.8-0.6c13.7-3.1,13.7-3.1,24.6-11.1
			c4.9-8.5,3.3-19.9,3.3-29.3c0-1.4,0-2.8,0-4.2c0-3.8,0-7.6,0-11.4c0-4.1,0-8.2,0-12.3c0-8,0-16,0-24c0-6.5,0-13,0-19.5
			c0-1.4,0-1.4,0-2.8c0-1.9,0-3.8,0-5.7c0-17.7,0-35.4,0-53c0-15.2,0-30.3,0-45.4c0-17.6,0-35.2,0-52.8c0-1.9,0-3.8,0-5.6
			c0-0.9,0-1.9,0-2.8c0-6.5,0-13,0-19.5c0-7.9,0-15.8,0-23.8c0-4,0-8.1,0-12.1c0-3.7,0-7.4,0-11.1c0-1.3,0-2.7,0-4
			c0.3-18.3,0.3-18.3-9-33.7c-8.4-6.1-19.4-6.9-29.3-8.2c-9.3-1.2-9.3-1.2-12.9-3.7C903,361.7,900.5,359.9,900.5,359.2z M1017,374
			c-2,2.5-1.5,5.7-1.4,8.8c0,0.8,0,1.5,0,2.3c0,2.6,0,5.1,0,7.7c0,1.8,0,3.7,0,5.5c0,5,0,10,0,15c0,5.2,0,10.5,0,15.7
			c0,8.8,0,17.5,0,26.3c0,9,0,18.1,0,27.1c0,10.9,0,21.8,0,32.7c0,4.2,0,8.3,0,12.5c0,4.9,0,9.8,0,14.7c0,1.8,0,3.6,0,5.4
			c0,2.4,0,4.9,0,7.3c0,0.7,0,1.4,0,2.2c-0.1,3.8-0.1,3.8,1.9,6.8c1.8,0.3,1.8,0.3,3.8,0.2c0.8,0,1.6,0,2.4,0c1.3,0,1.3,0,2.6,0
			c0.9,0,1.8,0,2.7,0c1.9,0,3.8,0,5.7,0c2.9,0,5.7,0,8.6,0c19.9,0,19.9,0,39.5-2.4c0.8-0.1,1.5-0.3,2.3-0.4c7.7-1.5,14.8-4.2,22-7.4
			c0.8-0.4,1.6-0.7,2.4-1.1c7.4-3.5,14.7-7.9,20.2-14v-1.7c0.5-0.2,1.1-0.4,1.6-0.6c1.9-0.9,1.9-0.9,2.2-2.8
			c0.1-0.5,0.2-1.1,0.4-1.6c0.8-0.3,1.7-0.6,2.5-0.8c1.9-3.2,1.9-3.2,2.5-6.7h1.7c12.1-33.3,15.1-71.6,0-104.7
			c-3-6.2-6.5-12.3-10.9-17.6h-1.7c-0.2-0.5-0.4-0.9-0.6-1.4c-8.3-14.6-28.5-21.3-43.7-25.6c-4.8-1.1-9.5-1.6-14.4-1.7
			c-0.6,0-1.1,0-1.7,0c-1.8,0-3.6-0.1-5.4-0.1c-0.9,0-0.9,0-1.9,0c-3.3-0.1-6.5-0.1-9.8-0.2c-3.4-0.1-6.8-0.1-10.1-0.2
			c-2.6-0.1-5.2-0.1-7.8-0.1c-1.2,0-2.5,0-3.7-0.1c-1.7,0-3.5-0.1-5.2-0.1c-1.5,0-1.5,0-3-0.1C1018.5,372.6,1018.5,372.6,1017,374
			L1017,374z"/>
		<path class="st0" d="M578.8,333.7c4.9,3,6.4,6.5,8.4,11.7c0.5,1.2,0.9,2.4,1.4,3.6c0.8,2,1.5,4,2.3,5.9c1.1,2.9,2.2,5.7,3.4,8.5
			c1.3,3,2.4,6.1,3.6,9.2c2,5.4,4.2,10.7,6.5,16c0.9,2.1,1.6,4.2,2.3,6.4c1.4,4.4,3.2,8.5,5.1,12.7c0.3,0.7,0.6,1.5,1,2.2
			c1.5,3.5,3,6.9,4.6,10.4c1.7,3.9,3.2,7.9,4.7,12c0.5,1.4,1,2.8,1.5,4.2c0.2,0.6,0.4,1.2,0.7,1.8c0.7,1.8,1.5,3.4,2.4,5.1
			c0.5,1,0.9,2.1,1.3,3.2c0.2,0.6,0.5,1.2,0.7,1.8c0.3,0.6,0.5,1.2,0.8,1.9c0.3,0.6,0.5,1.3,0.8,1.9c1.6,4,3.3,8,4.8,12
			c0.5,1.3,1.1,2.7,1.6,4c1.3,3.3,2.6,6.6,3.7,10.1c1.1,3.5,2.7,6.7,4.4,10.1c1.3,2.7,2.5,5.5,3.5,8.3c0.8,2.1,1.6,4.1,2.4,6.1
			c0.3,0.7,0.6,1.5,0.9,2.2c0.9,2.1,1.7,4.3,2.6,6.4c2.7,6.6,5.3,13.2,7.7,19.9c0.7,1.9,1.5,3.6,2.3,5.4c1.6,3.5,3,7.1,4.3,10.8
			c1.5,4,3,7.9,5,11.6c2.5,5.1,4.3,10.6,6.3,16c2.8,7.5,2.8,7.5,6.2,14.8c1.5,3.2,2.7,6.6,3.9,10c1.8,4.8,3.7,9.4,5.7,14.1
			c3.7,8.6,7,17.4,10.4,26.1c1.9,4.8,3.8,9.6,6,14.3c3.6,8.2,6.7,16.7,10,25.1c1.9,4.9,3.9,9.8,6,14.6c1,2.2,1.9,4.4,2.8,6.6
			c0.3,0.8,0.6,1.5,1,2.3c2.1,5.1,4.1,10.3,6.2,15.4c0.3,0.7,0.6,1.4,0.8,2.1c0.6,1.4,1.1,2.9,1.7,4.3c1.2,3.1,2.5,6.3,3.9,9.3
			c1.1,2.6,1.1,2.6,1.9,5.4c1.1,2.8,1.7,2.7,4.2,3.9c1.4,0.9,2.8,1.8,4.1,2.8c9.5,6.1,19.7,8.4,30.7,10.3c5.9,1.2,9.3,2.1,12.9,7
			c1,3.1,1,6.1,0.9,9.3c0,0.6,0,1.2,0,1.9c0,4.6,0,4.6-1,5.6c-7.3,0.4-14.6-0.2-21.8-0.7c-34.9-2.2-69.8-2.5-104.7-1
			c-0.7,0-1.4,0.1-2.2,0.1c-5.6,0.2-11.1,0.5-16.8,0.7c-1.2,0.1-1.2,0.1-2.4,0.1c-2.2,0.1-4.4,0.2-6.6,0.3c-1,0-1,0-2,0.1
			c-3.5,0.2-6.8,0.5-10.3,1.2c-3.2-4.8-2.6-10.4-2.1-16c0.6-2,1.3-2.8,3-4.1c4.2-2,8.8-2.8,13.3-3.6c5.1-1,9.9-2.3,14.8-3.8
			c0.6-0.2,1.3-0.4,1.9-0.6c4-1.3,6.5-2.9,9.3-6.2c0.3-0.6,0.6-1.1,0.8-1.7h1.7c0.6-6-0.5-10.7-2.3-16.4c-0.2-0.7-0.4-1.3-0.6-2
			c-1.3-4-2.9-7.8-4.7-11.6c-1.1-2.4-2-4.9-2.8-7.5c-1.3-3.7-2.6-7.3-4.2-10.9c-1.7-4.1-3.2-8.1-4.7-12.3c-2-5.8-4.3-11.5-6.7-17.2
			c-0.6-1.5-1.2-2.9-1.8-4.4c-0.2-0.6-0.5-1.2-0.7-1.8c-1.8-4.7-3.5-9.4-5.3-14.1c-0.4-1-0.7-1.9-1.1-2.9c-0.7-2-1.4-3.9-2.2-5.9
			c-3-10.4-3-10.4-8.3-19.5c-1.3,0.1-2.5,0.2-3.8,0.4c-6.3,0.6-12.7,0.6-19,0.6c-1.3,0-2.7,0-4.1,0c-3.6,0-7.3,0-11,0
			c-3.8,0-7.6,0-11.5,0c-7.2,0-14.4,0-21.7,0c-8.2,0-16.4,0-24.6,0c-16.3,0-32.4,0-48.7,0c-1.3,0-2.7,0-4,0
			c-0.2,0.5-0.3,0.9-0.5,1.4c-2,5.6-4.1,11.2-6.3,16.8c-0.3,0.8-0.6,1.5-0.9,2.3c-1.6,4.1-3.2,8.1-5,12.1
			c-3.3,8.1-6.5,16.2-9.6,24.3c-3.9,10-7.8,19.9-11.9,29.7c-0.4,1-0.8,2-1.2,3c-0.8,2-1.6,4-2.4,5.9c-5.4,11.9-5.4,11.9-7.6,24.5
			c0,0.6,0,1.3,0,1.9c0.1,1.9,0.3,3.4,0.9,5.2c2,0.9,2,0.9,4.2,1.7c0.8,0.6,0.8,0.6,1.6,1.2c4.3,3.2,9.6,4.5,14.7,5.9
			c0.6,0.2,1.3,0.4,2,0.6c3.4,0.9,6.7,1.7,10.1,2.2c0.6,0.1,1.3,0.2,1.9,0.3c1.2,0.2,2.4,0.3,3.6,0.4c3.2,0.4,4.7,1.1,7.1,3.3
			c2,3.4,2.2,5.3,2,9.3c0,1.6,0,1.6-0.1,3.3c-0.2,2.8-0.2,2.8-1.1,5.3c-3.3-0.1-6.6-0.2-9.9-0.3c-1.1,0-2.1-0.1-3.3-0.1
			c-6.5-0.2-13.1-0.5-19.6-0.8c-29.2-1.5-59-3-88,0.7c-9.2,1.2-9.2,1.2-13.2,0.6c-2.5-2.5-2-5.2-2-8.5c0-0.6,0-1.3-0.1-1.9
			c0-3.2,0.3-5.3,1.5-8.3c3.2-3.2,6.2-3.2,10.6-3.8c1.5-0.3,3-0.6,4.5-0.9c0.8-0.2,1.5-0.3,2.3-0.5c7.6-1.7,14.7-3.4,21.7-7
			c0.6-0.3,1.1-0.5,1.7-0.8c11.1-5.6,14.8-19,18.9-29.8c1.9-4.8,3.8-9.5,5.8-14.2c0.4-1,0.9-2.1,1.3-3.2c0.9-2.2,1.8-4.4,2.7-6.5
			c2-4.8,4-9.7,6-14.5c0.6-1.5,1.3-3.1,1.9-4.6c1.8-4.2,3.5-8.5,5.2-12.7c2.2-5.3,4.3-10.6,6.8-15.7c1.8-3.9,3.4-7.8,4.8-11.9
			c4.2-11.6,9.1-23.1,14.2-34.4c2.1-4.6,3.9-9.2,5.7-13.9c1.7-4.3,3.5-8.5,5.3-12.8c0.7-1.6,1.3-3.2,2-4.8c0.5-1.2,0.5-1.2,1-2.5
			c0.9-2.1,1.8-4.2,2.6-6.4c0.3-0.6,0.5-1.2,0.8-1.9c0.5-1.2,1-2.4,1.5-3.6c1.2-2.8,2.4-5.6,3.8-8.3c2.3-4.5,4.1-9.1,5.9-13.8
			c2.4-6.2,4.9-12.4,7.5-18.5c0.9-2.1,1.8-4.3,2.6-6.4c1.5-3.8,3.1-7.6,4.7-11.4c0.9-2.1,1.8-4.3,2.6-6.4c0.3-0.6,0.5-1.2,0.8-1.9
			c0.5-1.2,1-2.4,1.5-3.6c1.4-3.5,3.1-7,4.8-10.4c0.8-1.6,1.4-3.3,1.9-5c1.5-4.8,3.5-9.4,5.5-14.1c0.7-1.8,1.5-3.5,2.2-5.3
			c1.1-2.7,2.2-5.4,3.4-8c1.1-2.5,2-5,2.8-7.6h1.7c0.2-1,0.3-2,0.5-3c1.3-5.7,3.8-10.9,6.2-16.3c2.1-4.9,4.1-9.7,6-14.7
			c2.2-5.5,4.5-10.8,7-16.2c1.6-3.6,3-7.2,4.4-10.9c1.3-3.3,2.8-6.6,4.3-9.8c1.4-3.1,2.6-6.2,3.8-9.4c6.1-16.3,6.1-16.3,12.5-19.6
			C574.2,333.6,576,333.4,578.8,333.7L578.8,333.7z M557.1,428.4c-3.1,3.8-4.4,7.8-5.8,12.4c-1.1,3.3-2.4,6.5-3.8,9.7
			c-3.7,8.8-7.3,17.7-10.5,26.7c-1.2,3.3-2.5,6.5-3.8,9.7c-1.7,4.2-3.4,8.5-5,12.7c-1.9,5-3.9,9.9-6,14.7c-1.7,4.1-3.3,8.3-4.9,12.4
			c-1.2,3.2-2.5,6.4-3.9,9.6c-1.7,4-3.2,8.1-4.7,12.1c-0.4,1-0.7,1.9-1.1,2.9c-2.4,6.4-4.8,12.7-7.2,19.1c-1.1,2.9-2.3,5.7-3.6,8.6
			c-0.8,1.9-1.5,3.8-2.3,5.7c-0.4,0.9-0.8,1.9-1.1,2.8c-1,2.3-1,2.3,0.1,4c15,0,30.1,0,45.1,0c7,0,14,0,20.9,0c6.1,0,12.1,0,18.3,0
			c3.2,0,6.4,0,9.6,0c3,0,6.1,0,9.1,0c1.6,0,3.3,0,4.9,0c6,0,11.8-0.3,17.8-0.9c-0.8-3.2-1.7-6.2-2.8-9.3c-0.2-0.6-0.4-1.1-0.6-1.7
			c-1.3-3.7-2.6-7.4-4.1-11c-1.4-3.5-2.7-7.1-4-10.6c-1.1-3-2.3-6.1-3.5-9c-1.9-4.7-3.7-9.5-5.5-14.2c-0.3-0.9-0.7-1.8-1-2.7
			c-2.1-5.6-4.1-11.2-6.1-16.9c-0.7-1.8-1.4-3.5-2.1-5.3c-1.3-3.1-2.4-6.3-3.5-9.5c-2.7-7.7-5.7-15.2-8.7-22.7
			c-1.3-3.3-2.6-6.6-3.9-10c-1.1-2.8-2.2-5.6-3.3-8.5c-1.9-4.9-3.8-9.9-5.7-14.8c-0.3-0.7-0.5-1.4-0.8-2.1c-0.5-1.7-0.5-1.7-0.5-4.2
			h-1.7c-0.1-0.7-0.2-1.4-0.3-2.2c-0.5-2.7-1.3-5.2-2.2-7.9L557.1,428.4L557.1,428.4z"/>
		<path class="st0" d="M106.5,354.7c0-2.6-0.1-5.2-0.1-7.9c0-0.7,0-1.5,0-2.3c0-0.7,0-1.4,0-2.2c0-0.7,0-1.3,0-2
			c0.4-3.4,1.9-3.3,5.1-3.5l-0.1,0c1.3,0,2.6,0,3.9,0c1,0,1,0,2,0c4.9,0,4.9,0,6.8,1c6.6,1,13.3,1.1,19.9,1.3
			c1.7,0.1,1.7,0.1,3.3,0.1c2.3,0.1,4.6,0.1,7,0.2c2.9,0.1,5.9,0.2,8.8,0.3c17.8,0.6,35.4,0.8,53.3,0.3c0.7,0,1.3,0,2-0.1
			c11.1-0.3,22.1-0.8,33.2-1.6c17-1.2,17-1.2,19.9,0.3c1.1,5.4,1.8,11.5-0.1,16.7c-3.6,3.9-9,4.7-14,5.5
			c-16.9,2.7-16.9,2.7-30.3,12.1c-0.9,1.4-1.7,2.8-2.5,4.2c-0.6,0.8-1.1,1.7-1.7,2.5c-0.3,2.4-0.4,4.8-0.5,7.2
			c0,0.8-0.1,1.5-0.1,2.3c-0.4,11.1-0.3,22.2-0.3,33.3c0,3.4,0,6.7,0,10.1c0,5.8,0,11.6,0,17.5c0,8.5,0,16.9,0,25.5
			c0,13.8,0,27.6,0,41.5c0,0.8,0,1.7,0,2.5c0,6.7,0,13.3,0,20c0,5.8,0,11.6,0,17.4c0,0.8,0,1.6,0,2.5c0,13.7,0,27.5,0,41.2
			c0,7.7,0,15.3,0,23c0.1,55.5,0.1,55.5-0.4,78c0,0.7,0,1.5,0,2.2c-0.5,23.4-1.3,47.9-6,70.8c-0.2,1-0.2,1-0.4,2.1
			c-4.2,19.7-11.6,37.8-21.6,55.2H192c-0.1,0.9-0.1,0.9-0.2,1.8c-0.7,2.8-1.8,4.5-3.5,6.8c-0.5,0.7-1,1.5-1.6,2.2
			c-0.5,0.6-0.9,1.1-1.4,1.7h-1.7c-0.2,0.6-0.4,1.2-0.6,1.8c-2,4.5-5.5,7.9-8.7,11.5c-1.9,2.1-3.7,4.3-5.5,6.6c-1.1,1-1.1,1-2.7,1
			c-0.2,0.5-0.4,0.9-0.6,1.4c-1.9,3.4-4.1,5.7-7.8,7c-0.3,0.6-0.5,1.1-0.8,1.7c-0.3,0.6-0.6,1.1-0.9,1.7c-1.1,0.3-2.2,0.6-3.4,0.8
			c-0.4,0.8-0.4,0.8-0.7,1.5c-1.1,2.2-2.3,3-4.3,4.4c-2.3,1.6-3.4,2.6-5,5c-0.9,0.5-0.9,0.5-1.8,1.1c-3.7,2.2-6.7,5.1-9.8,8
			l-1.5,1.3l-1.4,1.2c-1.6,1.1-2.9,1.4-4.7,1.8c-0.3,0.5-0.5,1-0.8,1.6c-1.2,2.4-2.7,2.9-5.1,4.3c-1.1,0.8-2.2,1.6-3.3,2.4
			c-13.5,10.2-13.5,10.2-17.5,10.1c-1.9-0.7-1.9-0.7-4.4-2.4v-1.7h-1.7c-2.1-4-3-7-2.3-11.5c1.6-4.6,5.4-7.7,9-10.7
			c2.6-2.2,4.3-4.5,6.3-7.3c1.2-1.5,1.2-1.5,3.2-3.2c2.7-2.2,4.5-4.6,6.6-7.4c4.3-5.7,4.3-5.7,6.9-8.1c1.5-1.6,2.5-3.5,3.5-5.4
			c1.2-2,2.5-3.8,3.8-5.7c8.7-12.3,8.7-12.3,14-26.2h1.7c0.2-1.1,0.4-2.1,0.6-3.3c0.6-2.9,1.5-5.5,2.6-8.2
			c4.8-11.7,7.6-24.6,9.3-37.1c0.1-0.8,0.2-1.6,0.3-2.4c1.7-12.9,2.4-25.6,2.7-38.6c0-1.2,0-1.2,0.1-2.4c0.4-16.3,0.4-32.5,0.4-48.8
			c0-4,0-8,0-12c0-7.8,0-15.5,0-23.3c0-6.3,0-12.7,0-18.9c0-1.4,0-1.4,0-2.7c0-1.8,0-3.7,0-5.5c0-17.2,0-34.3,0-51.4
			c0-14.7,0-29.4,0-44.1c0-17.1,0-34.3,0-51.4c0-1.8,0-3.7,0-5.5c0-0.9,0-1.8,0-2.7c0-6.3,0-12.7,0-18.9c0-7.7,0-15.3,0-23
			c0-3.9,0-7.8,0-11.7c0-3.6,0-7.2,0-10.7c0-1.3,0-2.6,0-3.9c0.1-15.4,0.1-15.4-4.3-30c-0.3-0.8-0.6-1.5-0.8-2.3
			c-0.7-2.1-0.7-2.1-2.6-2.8c-0.8-0.3-1.6-0.5-2.4-0.8c-1.1-0.5-2.1-1.1-3.1-1.6c-7.6-3.8-15.4-5.1-23.9-6.2
			c-5.3-0.8-9.4-2-14.1-4.7C108.2,356.4,106.8,355.8,106.5,354.7z"/>
		<path class="st0" d="M273.2,883.4c-0.3-1.4-0.7-2.7-1-4.1c-5,4.4-6.3,11.9-7.8,18.2c-0.6,2-0.7,1.8-1.8,4.6
			c-0.7,2.6-1.9,5-2.5,7.6c-1.4,3.9-2.3,7.2-3.8,10.7c-0.4,1.1-0.8,2.2-1.2,3.4c-0.2,0.6-0.4,1.3-0.6,1.9c-0.2,0.8-0.5,1.5-0.7,2.3
			c-2.3,7.1-4.6,14.1-7.5,20.9h-2.5c-3.2-3.7-4.4-7.9-5.8-12.5c-0.8-2.3-1.7-4.5-2.7-6.8c-1.7-4-3-8.2-4.4-12.3
			c-1.3-3.9-2.8-7.5-4.7-11.1c-1-2.6-1.9-5.2-2.8-7.8c-0.5-1.5-1-3-1.5-4.5c-0.5-1.5-1-3-1.5-4.5c-3.5-10.2-3.5-10.2-7.6-20.1
			c-1.3-3-2.3-6.1-3.3-9.2c-0.3-0.8-0.6-1.7-0.8-2.5c-1.7-0.6-1.7-0.6-3.6-0.9c-2.7-0.5-4.9-1.1-7.3-2.5c0.6-1.1,1.1-2.2,1.7-3.4
			h35.2c0.6,1.1,1.1,2.2,1.7,3.4c-3.2,2.2-6.3,3.2-10.1,4.2c1,9.6,4.7,18.7,8.4,27.6c1.2,3,2.2,5.9,3.1,9c2.7,9,6.2,17.6,9.5,26.3
			h2.5c0.1-0.6,0.3-1.3,0.4-1.9c0.2-0.9,0.4-1.7,0.6-2.6c0.2-0.8,0.4-1.7,0.6-2.6c0.7-2.3,1.5-4.3,2.5-6.5c1.9-4.1,3.3-8.4,4.7-12.7
			c1.7-5.2,3.5-10.3,5.6-15.4c0.8-2.1,1.5-4.1,2.1-6.2c0.9-3,1.8-6,2.8-9c0.2-0.6,0.4-1.3,0.5-2c1.3-4.5,2.8-8.3,5.3-12.3l0,0.1
			c2.8,1.9,2.9,2.3,3.7,5.4c0.7,2.9,1.7,5.6,2.8,8.4c2.1,5.2,3.9,10.5,5.7,15.8c0.5,1.6,1.1,3.2,1.6,4.8c1.5,4.5,3.1,9,4.6,13.5
			c0.8,2.2,1.5,4.4,2.3,6.6c0.5,1.6,1.1,3.1,1.6,4.7c0.3,1,0.7,1.9,1,2.9c0.3,0.8,0.6,1.7,0.9,2.5c1,2.6,2.2,5,3.4,7.4h1.7
			c0.2-1.1,0.4-2.2,0.7-3.3c0.9-4.2,2.3-8.2,3.9-12.1c1.8-4.8,3.6-9.6,5-14.6c1.3-4.6,3-9.2,4.6-13.7c1.3-3.5,2.5-7,3.7-10.6
			c0.3-0.9,0.6-1.7,0.9-2.6c0.6-2.8,0.3-4.8-0.3-7.6c-0.6-0.1-1.2-0.3-1.8-0.4c-0.8-0.2-1.5-0.4-2.3-0.6c-0.8-0.2-1.5-0.4-2.3-0.6
			c-1.9-0.9-1.9-0.9-2.6-2.6c-0.1-0.5-0.1-1-0.2-1.6c2.5-1.3,4.8-0.9,7.6-0.8c0.6,0,1.2,0,1.8,0.1c1.2,0,2.5,0.1,3.7,0.1
			c1.9,0.1,3.8,0.1,5.7,0.2c1.2,0,2.4,0.1,3.6,0.1c1.1,0,2.2,0.1,3.3,0.1c2.6,0.2,2.6,0.2,4.3,1c-0.3,1.1-0.6,2.2-0.8,3.4h-3.4
			c-4.2,1.6-6.5,3.5-8.4,7.5c-1.2,3.3-2.3,6.7-3.4,10.1c-0.3,0.8-0.5,1.6-0.8,2.4c-0.6,2-1.3,3.9-1.9,5.9c-0.2,0.6-0.3,1.1-0.5,1.7
			c-0.4,1.2-0.7,2.3-1,3.5c-1.1,3.5-2.4,6.7-4.1,10c-0.4,1.1-0.8,2.3-1.2,3.4c-0.3,1-0.3,1-0.6,1.9c-0.5,1.6-1,3.2-1.5,4.8
			c-1.5,4.9-3.1,9.7-5,14.4c-1.4,3.5-2.7,7.1-3.9,10.7c-2,5.6-4.1,11.1-6.2,16.6c-2.5,0-2.5,0-4.2-0.8c-0.8-1.7-0.8-1.7-1.7-4.2
			c-0.4-1-0.8-2-1.2-3c-3.9-10.6-7.7-21.3-11.4-31.9c-0.5-1.5-1.1-3-1.6-4.5c-0.5-1.4-1-2.8-1.5-4.2c-0.2-0.6-0.5-1.3-0.7-2
			c-0.3-0.9-0.3-0.9-0.7-1.9c-0.7-1.9-1.4-3.7-2.1-5.6c-0.3-1-0.7-2-1-3L273.2,883.4z"/>
		<path class="st0" d="M472.4,850.9c0.9,0.1,1.8,0.1,2.7,0.2c9.8,0.6,19.5,0.7,29.3,0.7c30.9-0.2,30.9-0.2,42.3,5.7
			c0.5,0.3,1.1,0.6,1.6,0.8c3.4,1.9,6,4,8.6,6.9c0.4,0.5,0.9,0.9,1.4,1.4c8.6,9.6,12.8,23.2,12.3,35.9c-1.2,13.7-6.5,26.2-17,35.6
			c-8.3,5.2-16.8,8.5-26.6,9.3c-0.8,0.1-1.6,0.1-2.4,0.2c-6.9,0.6-13.7,0.6-20.5,0.5c-10.3-0.1-20.5,0.4-30.7,0.8
			c-0.6-1.1-1.1-2.2-1.7-3.4c1.6-0.6,3.3-1.1,4.9-1.7c0.9-0.3,1.8-0.6,2.8-0.9c2.4-0.7,2.4-0.7,4-0.7c0-10,0.1-19.9,0.1-29.8
			c0-4.6,0-9.2,0-13.8c0-4.5,0-8.9,0-13.4c0-1.7,0-3.4,0-5.1c0-2.4,0-4.8,0-7.1c0-0.7,0-1.4,0-2.1c0-4.4-0.5-8.2-1.9-12.4
			c-1.9-1.3-1.9-1.3-4.2-1.6c-4.1-0.8-4.1-0.8-5.9-2.6C472,852.5,472,852.5,472.4,850.9L472.4,850.9z M549.5,928.9
			c1.2-2.1,1.2-2.1,2.2-4.7c0.4-0.9,0.7-1.7,1.1-2.6c4-12.1,4-30.6-1.6-42.1c-0.3-0.7-0.7-1.5-1-2.2c-3.9-7.2-9.5-13.8-17.3-16.7
			c-0.7-0.2-1.5-0.4-2.2-0.7c-2.1-0.6-2.1-0.6-3.6-1.4c-5.8-2.8-13.6-1.8-19.9-1.7c-1.4,0-1.4,0-2.8,0c-2.3,0-4.5,0-6.8,0l0,0
			c-1.1,3.3-1,6.6-0.9,10c0,0.7,0,1.3,0,2c0,2.2,0,4.4,0,6.6c0,1.5,0,3.1,0,4.6c0,3.2,0,6.4,0,9.6c0,4.1,0,8.2,0,12.3
			c0,3.2,0,6.3,0,9.5c0,1.5,0,3,0,4.5c0,6.6,0,13.2,0.3,19.7c0,0.8,0.1,1.5,0.1,2.3c0.4,2,0.4,2,2.1,3.4c3.9,2.2,8.9,1.4,13.2,1.4
			c1.9,0,3.7,0,5.6,0.1c10.9,0.1,19.6-2.2,27.8-9.9C545.7,932.9,548.7,930.1,549.5,928.9z"/>
		<path class="st0" d="M599.4,850.9c0.9,0.1,1.8,0.1,2.7,0.2c9.8,0.6,19.5,0.7,29.3,0.7c30.9-0.2,30.9-0.2,42.3,5.7
			c0.5,0.3,1.1,0.6,1.6,0.8c3.4,1.9,6,4,8.6,6.9c0.4,0.5,0.9,0.9,1.4,1.4c8.6,9.6,12.8,23.2,12.3,35.9c-1.2,13.7-6.5,26.2-17,35.6
			c-8.3,5.2-16.8,8.5-26.6,9.3c-0.8,0.1-1.6,0.1-2.4,0.2c-6.9,0.6-13.7,0.6-20.5,0.5c-10.3-0.1-20.5,0.4-30.7,0.8
			c-0.6-1.1-1.1-2.2-1.7-3.4c1.6-0.6,3.3-1.1,4.9-1.7c0.9-0.3,1.8-0.6,2.8-0.9c2.4-0.7,2.4-0.7,4-0.7c0-10,0.1-19.9,0.1-29.8
			c0-4.6,0-9.2,0-13.8c0-4.5,0-8.9,0-13.4c0-1.7,0-3.4,0-5.1c0-2.4,0-4.8,0-7.1c0-0.7,0-1.4,0-2.1c0-4.4-0.5-8.2-1.9-12.4
			c-1.9-1.3-1.9-1.3-4.2-1.6c-4.1-0.8-4.1-0.8-5.9-2.6C599,852.5,599,852.5,599.4,850.9L599.4,850.9z M676.5,928.9
			c1.2-2.1,1.2-2.1,2.2-4.7c0.4-0.9,0.7-1.7,1.1-2.6c4-12.1,4-30.6-1.6-42.1c-0.3-0.7-0.7-1.5-1-2.2c-3.9-7.2-9.5-13.8-17.3-16.7
			c-0.7-0.2-1.5-0.4-2.2-0.7c-2.1-0.6-2.1-0.6-3.6-1.4c-5.8-2.8-13.6-1.8-19.9-1.7c-1.4,0-1.4,0-2.8,0c-2.3,0-4.5,0-6.8,0l0,0
			c-1.1,3.3-1,6.6-0.9,10c0,0.7,0,1.3,0,2c0,2.2,0,4.4,0,6.6c0,1.5,0,3.1,0,4.6c0,3.2,0,6.4,0,9.6c0,4.1,0,8.2,0,12.3
			c0,3.2,0,6.3,0,9.5c0,1.5,0,3,0,4.5c0,6.6,0,13.2,0.3,19.7c0,0.8,0.1,1.5,0.1,2.3c0.4,2,0.4,2,2.1,3.4c3.9,2.2,8.9,1.4,13.2,1.4
			c1.9,0,3.7,0,5.6,0.1c10.9,0.1,19.6-2.2,27.8-9.9C672.7,932.9,675.7,930.1,676.5,928.9z"/>
		<path class="st0" d="M965.1,850.1c1,0,2.1,0,3.2,0c8.6,0,16.8,0.9,25.1,3.5l1.5,0.6l0.2,1.1c1.8,7.2,2.2,14.4,2.5,21.8h-2.5
			l-1.3,0l-0.4-1.6c-0.3-0.7-0.6-1.4-1-2.1c-4-8.4-7.8-13.1-16.7-16.4c-3.3-0.5-6.5-0.5-9.9-0.4c-1.3,0-1.3,0-2.6,0
			c-4.1,0.1-7.2,0.4-11,2c-0.6,0.2-1.3,0.4-1.9,0.6c-6.7,2.3-13.1,6.4-16.6,12.7c-6.8,15.1-7,32.3-1.6,47.8c1.3,3.2,2.6,5.9,5,8.4
			c0.3,0.4,0.6,0.8,1,1.2c5.6,7.2,13.2,12.1,22.3,13.3c2.5,0.2,5,0.3,7.5,0.3c0.8,0,1.7,0.1,2.6,0.1c4.1,0.1,7.9,0.2,12-0.7
			c0.2-2.9,0.3-5.8,0.5-8.7c0.1-1.2,0.1-1.2,0.1-2.5c0.7-9.2,0.7-9.2-1.9-17.7c-3-1.9-6.2-2.9-9.6-3.8v-3.4h34.4
			c0.3,1.4,0.6,2.8,0.8,4.2c-0.5,0.1-1,0.2-1.6,0.3c-1,0.3-1,0.3-2.1,0.5c-0.7,0.2-1.4,0.3-2.1,0.5c-2.3,1.4-2.5,2.8-3.2,5.3
			c-0.5,2.8-0.5,5.5-0.5,8.3c0,0.9,0,0.9,0,1.8c0,1.9,0,3.8,0.1,5.7c0,1.3,0,2.6,0,3.9c0,3.2,0,6.4,0.1,9.6
			c-11.2,3.2-22.1,3.4-33.7,3.5c-1.5,0-1.5,0-3,0c-14.4,0-26.5-4.3-36.9-14.4c-10.4-12.9-13.1-27.2-11.5-43.4
			c1.4-8.3,5.1-15.9,9.8-22.8c0.5-0.8,0.9-1.6,1.4-2.4c2.3-3.1,4.7-5.1,7.8-7.3c0.6-0.4,1.1-0.8,1.7-1.2
			C943.6,851.3,952.5,850.1,965.1,850.1L965.1,850.1z"/>
		<path class="st0" d="M865.3,919.7c1.4,1.3,1.4,1.3,2.5,2.5c0.7-13,0.9-25.9,1-38.9c0-1.6,0-3.2,0-4.7c0-2.2,0-4.5,0-6.7
			c0-0.7,0-1.3,0-2c0-4.1-0.5-7.5-1.9-11.3c-1.5-1.2-1.5-1.2-3.3-1.5c-0.6-0.2-1.2-0.4-1.8-0.5c-0.5-0.2-1.1-0.3-1.7-0.5
			c-1.1-0.5-2.3-1.1-3.4-1.7c0.3-1.1,0.6-2.2,0.8-3.4h26.8c0.4,2.1,0.4,2.1,0.8,4.2c-0.5,0.2-1.1,0.3-1.6,0.5
			c-0.7,0.2-1.4,0.4-2.1,0.7c-0.7,0.2-1.4,0.4-2.1,0.6c-1.9,0.6-1.9,0.6-2.6,2.4c-0.2,1.8-0.3,3.5-0.4,5.3c-0.3,5.3-0.3,5.3-0.8,7.4
			c-0.6,3.3-0.5,6.5-0.5,9.8c0,0.7,0,1.5,0,2.2c0,2.4,0,4.9,0,7.3c0,1.7,0,3.4,0,5.1c0,4.4,0,8.9,0,13.3c0,4.5,0,9,0,13.6
			c0,8.9,0,17.8,0,26.6c-5.2-1-7.8-5.3-10.9-9.2c-0.8-1-0.8-1-1.6-2l-26.1-34c-1.1-1.4-2.2-2.9-3.2-4.3c-2.6-3.6-5.2-7.1-8-10.6
			c-1.3-1.7-2.6-3.4-3.9-5.1c-5.8-7.9-5.8-7.9-12.6-15.1c0,0.7,0,1.3,0.1,2l-0.1,61.7c0.2,1.4,0.3,2.9,0.5,4.3
			c0.1,1.1,0.1,1.1,0.2,2.3c0.1,0.6,0.1,1.2,0.2,1.8c0.5,0.1,1,0.3,1.5,0.4c3.9,1.2,6.8,2.1,9.4,5.4v0.8c-3.6,0.7-7,0.9-10.6,0.9
			c-1,0-2.1,0-3.2,0c-1.1,0-2.2,0-3.3,0c-1.1,0-2.2,0-3.3,0c-2.7,0-5.4,0-8.1,0c-0.3-1.1-0.6-2.2-0.8-3.4c1.1-0.4,2.1-0.8,3.2-1.2
			c0.6-0.2,1.2-0.4,1.8-0.7c1.4-0.5,2.8-1,4.2-1.5c1-8.8,1-17.5,1-26.3c0-1.6,0-3.1,0-4.7c0-3.2,0-6.5,0-9.7c0-4.1,0-8.3,0-12.4
			c0-3.2,0-6.4,0-9.6c0-1.5,0-3.1,0-4.6c0-2.1,0-4.3,0-6.4c0-0.9,0-0.9,0-1.9c0-3.4-0.3-6.1-1.9-9c-2-1.2-2-1.2-4.3-1.9
			c-0.8-0.3-1.5-0.5-2.3-0.8c-0.6-0.2-1.2-0.4-1.8-0.6c0.3-1.1,0.6-2.2,0.8-3.4l0-0.1c5.3-0.1,10.6-0.1,15.9,0.2
			c0.7,0,1.4,0.1,2.1,0.1c5.6,1.4,8.5,6.7,11.6,11.1c1,1.4,1.9,2.7,2.9,4.1c0.5,0.6,0.9,1.3,1.4,2c2,2.8,4.1,5.4,6.2,8l4.7,6
			c2.2,3.4,4.5,6.5,6.9,9.7c0.4,0.5,0.7,0.9,1.1,1.4c0.7,0.9,1.5,1.9,2.2,2.8c4.5,5.8,9,11.6,13.3,17.5c0.5,0.7,1.1,1.5,1.7,2.2
			L865.3,919.7z"/>
		<path class="st0" d="M1035.4,918.8l3.4,0.8c2.7,3.4,4.2,7,5.9,10.9c2.9,5.3,7.7,9.5,13.4,11.7c7.7,1.1,15.8,1.9,22.5-2.4
			c3.8-3.9,5-7.2,5.3-12.5c-0.1-4.9-1.4-8.7-4.6-12.4c-2.5-2.2-4.8-3.6-7.8-5c-0.8-0.4-0.8-0.4-1.6-0.8c-3.2-1.5-6.5-2.9-9.8-4.3
			c-9.5-3.9-17.1-8.4-22.5-17.3c-3.1-7.9-2.1-15.6,0.7-23.4c0.3-0.6,0.6-1.1,0.8-1.7l0.9-1.9c3.6-5.2,7-6.8,12-9
			c11.6-4.7,27-2.1,38.1,2.5l0.1,0l1.5,0.7l0.2,0.9c0.3,2.4,0.6,4.9,0.8,7.3c0.1,0.7,0.2,1.4,0.2,2.1c0.1,0.7,0.2,1.3,0.2,2
			c0.1,0.6,0.1,1.2,0.2,1.9c0.1,1.7,0.2,3.4,0.2,5.1c-2.9-0.2-3.9-0.6-5.9-2.8c-0.5-0.8-1.1-1.6-1.6-2.4c-0.6-0.8-1.2-1.7-1.8-2.5
			c-0.5-0.8-1-1.5-1.6-2.3c-3.9-4.9-9.3-6.9-15.4-7.8c-4.1-0.2-7.5,0.7-11.4,2.2c0,0-4.6,1.7-6.7,6.5c-0.4,0.8-0.4,0.8-0.9,1.6
			c-1.4,3-1.3,6-0.8,9.3c0,0,1.2,4.4,5,6.4c2.2,0.9,4.2,2,6.2,3.1c3.9,2.2,7.8,3.9,12,5.5c6.4,2.5,11.6,5.7,17,10.1
			c0.6,0.5,1.1,0.9,1.7,1.4c4.8,4.3,7.9,9.8,8.6,16.3c0.2,7.9-0.9,15.5-6.2,21.7l-1.8,2.1c-4.4,4.3-6.5,4.8-10.8,6.1
			c-12.5,2.8-25.5,1.4-37.6-2.3c-0.8-0.2-1.6-0.5-2.4-0.7c-2.2-0.9-3.1-1.5-4.3-3.5c-0.8-3.5-1.2-6.9-1.5-10.5
			C1034.9,927.9,1035.4,918.8,1035.4,918.8z"/>
		<path class="st0" d="M371.9,850.9c0.6,0,1.2,0,1.8,0c0.6,0,1.3,0,1.9,0c2.1,0,4.2,0,6.3,0c1.5,0,2.9,0,4.4,0c3.1,0,6.1,0,9.2,0
			c3.9,0,7.9,0,11.8,0c3,0,6,0,9,0c1.4,0,2.9,0,4.3,0c2,0,4.1,0,6.1,0c0.6,0,1.2,0,1.8,0c4.2,0,4.2,0,6,1.9c0.6,2.2,0.6,2.2,1.1,4.9
			c0.2,1,0.4,2,0.6,3c0.2,1,0.4,2.1,0.6,3.1c0.2,1,0.4,2.1,0.6,3.1c0.5,2.6,0.9,5.1,1.4,7.7c-5.4-1.8-8.4-7.9-11.1-12.7
			c-2.5-2.9-5.8-3.2-9.6-3.6c-1.1,0-2.3-0.1-3.4-0.1c-0.6,0-1.2,0-1.8,0c-1.9,0-3.8-0.1-5.8-0.1c-1.3,0-2.6-0.1-3.9-0.1
			c-3.2-0.1-6.4-0.2-9.6-0.2c-0.8,2.3-0.9,3.6-0.9,5.9c0,1,0,1,0,2.1c0,0.7,0,1.5,0,2.2c0,1.1,0,1.1,0,2.3c0,2.4,0,4.9,0,7.3
			c0,1.6,0,3.3,0,4.9c0,4,0,8.1,0,12.1c4.4,1.5,9.2,1,13.9,1c1.1,0,2.1,0,3.2,0c1.5,0,1.5,0,3,0c0.9,0,1.8,0,2.8,0
			c2.4,0,2.4,0,3.9-1.9c0.7-2.4,1.2-4.8,1.8-7.2c0.2-0.7,0.5-1.3,0.7-2c0.8-0.3,1.7-0.6,2.5-0.8c1.7,1.7,1.1,4.9,1.1,7.2
			c0,0.6,0,1.3,0.1,1.9c0.1,2,0.1,4,0.2,6.1c0,1.4,0.1,2.7,0.1,4.1c0.1,3.4,0.2,6.7,0.3,10.1c-4-1.5-4-1.5-5.3-3.4
			c-0.3-0.7-0.5-1.3-0.8-2c-0.3-0.7-0.5-1.3-0.8-2c-0.6-1.8-0.6-1.8-0.6-4.3h-26.8c0.3,13,0.6,26,0.8,39.4
			c7.7,1.3,13.7,1.9,21.2,1.6c0.9,0,1.9,0,2.9-0.1c6.8-0.3,10.5-1.4,15.8-5.8c2.4-2.8,4.1-5.8,6-9c1.1-1.8,1.1-1.8,2.8-2.6
			c0.6,0.3,1.1,0.6,1.7,0.8c-0.4,5-1,9.5-2.5,14.2c-0.5,2-0.9,4-1.3,6c-0.4,1.5-0.4,1.5-1.2,2.4c-1.9,0.2-3.8,0.4-5.7,0.5
			c-1,0.1-2.1,0.2-3.1,0.2c-4,0.2-7.9-0.2-11.8-0.6c-4.6-0.3-9.2-0.3-13.8-0.3c-1,0-2,0-3,0c-11,0.1-22,0.5-32.9,0.9
			c-0.3-1.1-0.6-2.2-0.8-3.4l10.1-3.4c2.1-3.1,1.9-4.6,1.9-8.3c0-0.9,0-0.9,0-1.8c0-2,0-4,0-6c0-1.4,0-2.8,0-4.3
			c0-4-0.1-8.1-0.1-12.1c0-3-0.1-5.9-0.1-8.9c0-5.4-0.1-10.7-0.2-16.1c0-2.1,0-4.3-0.1-6.4c0-3-0.1-6-0.1-9c0-0.9,0-1.8,0-2.8
			c0-0.8,0-1.7-0.1-2.5c0-0.7,0-1.5,0-2.2c-0.4-2.3-1-3-2.8-4.4c-2.1-0.8-2.1-0.8-4.3-1.4c-0.8-0.2-1.5-0.4-2.3-0.6
			c-0.6-0.2-1.1-0.3-1.7-0.5c0-4.8,0.7-4.3,5.1-4.3L371.9,850.9z"/>
		<path class="st0" d="M728,850.9c0.8,0,0.8,0,1.5,0.1c11.1,0.6,21.8,0.8,32.8-0.1l1.9-0.2l-0.2,1.8c-0.3,0.8-0.6,1.7-0.8,2.5
			c-1.9,0.7-1.9,0.7-4.1,1.3c-3.6,0.8-3.6,0.8-5.9,3.8c-0.3,1.8-0.3,1.8-0.3,3.8c0,1.2,0,1.2-0.1,2.4c0,0.8,0,1.7,0,2.6
			c0,0.9,0,1.8,0,2.7c-0.1,2.9-0.1,5.7-0.1,8.6c0,2-0.1,3.9-0.1,5.9c-0.1,5.6-0.2,11.2-0.2,16.8c0,0.7,0,1.4,0,2.2
			c-0.5,17.8-0.5,17.8,0.9,35.5c2.1,2.1,4,2.5,6.8,3.4c2,1,2.3,2.2,3.3,4.2c-0.8,0-1.6,0-2.4,0c-3,0-5.9,0-9,0c-1.3,0-2.6,0-3.9,0
			c-1.9,0-3.7,0-5.6,0c-0.6,0-1.2,0-1.8,0c-3.1,0-3.1,0-6,0.9c-2.9,0.2-2.9,0.2-5.9,0c-0.6-0.8-1.1-1.7-1.7-2.5
			c3.7-2.6,6.5-2.9,10.9-3.4c0-10.6,0.1-21,0.1-31.6c0-4.9,0-9.8,0-14.7c0-4.7,0-9.5,0-14.2c0-1.8,0-3.6,0-5.4c0-2.5,0-5,0-7.6
			c0-0.7,0-1.5,0-2.3c0-3.6-0.1-6.6-1.9-9.9c-1.5-0.8-1.5-0.8-3.3-1c-2.6-0.4-3.6-0.8-5.9-2.4C727.4,853.2,727.7,852.1,728,850.9
			L728,850.9z"/>
	</g>
</g>
</svg>
